<?xml version="1.0" encoding="UTF-8"?>
<svg width="512px" height="512px" viewBox="0 0 512 512" version="1.1" xmlns="http://www.w3.org/2000/svg" xmlns:xlink="http://www.w3.org/1999/xlink">
    <title>pagespeed-insights</title>
    <g id="Page-1" stroke="none" stroke-width="1" fill="none" fill-rule="evenodd">
        <g id="pagespeed-insights" fill-rule="nonzero">
            <polygon id="Path" fill="#DDEEFF" points="0 106.667 512 106.667 512 426.667 0 426.667"></polygon>
            <path d="M512,106.667 L0,106.667 L0,42.56 C0,19.055 19.137,0 42.772,0 L469.228,0 C492.85,0 512,19.032 512,42.56 L512,106.667 Z" id="Path" fill="#BBDDFF"></path>
            <path d="M128,74.667 C116.218,74.667 106.667,65.115 106.667,53.333 C106.667,41.551 116.217,32 128,32 C139.783,32 149.333,41.551 149.333,53.333 C149.333,65.115 139.783,74.667 128,74.667 Z M53.333,74.667 C41.551,74.667 32,65.115 32,53.333 C32,41.551 41.551,32 53.333,32 C65.115,32 74.667,41.551 74.667,53.333 C74.667,65.115 65.115,74.667 53.333,74.667 Z" id="Shape" fill="#FFFFFF"></path>
            <path d="M0,426.667 C0,361.151 24.994,295.634 74.98,245.647 C174.955,145.673 337.045,145.673 437.02,245.647 L376.68,305.987 C345.795,275.103 303.128,256 256,256 C161.743,256 85.333,332.41 85.333,426.667 L0,426.667 Z" id="Path" fill="#FFFFFF"></path>
            <path d="M426.667,426.667 L512,426.667 C512,361.151 487.006,295.634 437.02,245.647 L376.68,305.987 C407.564,336.872 426.667,379.538 426.667,426.667 Z" id="Path" fill="#CA0E1A"></path>
            <path d="M195.66,487.006 C162.335,453.682 162.335,399.652 195.66,366.326 C228.985,333.002 414.392,268.275 414.392,268.275 C414.392,268.275 349.665,453.682 316.34,487.006 C283.015,520.331 228.985,520.331 195.66,487.006 Z" id="Path" fill="#BBDDFF"></path>
            <path d="M256,469.333 C232.436,469.333 213.333,450.231 213.333,426.667 C213.333,403.103 232.436,384 256,384 C279.564,384 298.667,403.103 298.667,426.667 C298.667,450.231 279.564,469.333 256,469.333 Z" id="Path" fill="#FFFFFF"></path>
        </g>
    </g>
</svg>