<?xml version="1.0" encoding="UTF-8"?>
<svg width="512px" height="512px" viewBox="0 0 512 512" version="1.1" xmlns="http://www.w3.org/2000/svg" xmlns:xlink="http://www.w3.org/1999/xlink">
    <title>pwaseo</title>
    <defs>
        <linearGradient x1="50%" y1="0.105574324%" x2="50%" y2="100%" id="linearGradient-1">
            <stop stop-color="#196BCE" offset="0%"></stop>
            <stop stop-color="#0C447D" offset="99.9699519%"></stop>
        </linearGradient>
    </defs>
    <g id="Page-1" stroke="none" stroke-width="1" fill="none" fill-rule="evenodd">
        <g id="pwaseo" fill-rule="nonzero">
            <path d="M146.141456,0 L365.858544,0 C416.675112,0 435.102427,5.29105984 453.680205,15.2265641 C472.257983,25.1620684 486.837932,39.7420171 496.773436,58.3197949 C506.70894,76.8975727 512,95.3248882 512,146.141456 L512,365.858544 C512,416.675112 506.70894,435.102427 496.773436,453.680205 C486.837932,472.257983 472.257983,486.837932 453.680205,496.773436 C435.102427,506.70894 416.675112,512 365.858544,512 L146.141456,512 C95.3248882,512 76.8975727,506.70894 58.3197949,496.773436 C39.7420171,486.837932 25.1620684,472.257983 15.2265641,453.680205 C5.29105984,435.102427 0,416.675112 0,365.858544 L0,146.141456 C0,95.3248882 5.29105984,76.8975727 15.2265641,58.3197949 C25.1620684,39.7420171 39.7420171,25.1620684 58.3197949,15.2265641 C76.8975727,5.29105984 95.3248882,0 146.141456,0 Z" id="background" fill="url(#linearGradient-1)"></path>
            <g id="install_desktop_FILL0_wght400_GRAD0_opsz48" transform="translate(98.000000, 114.000000)" fill="#FFFFFF">
                <path d="M99.0625,285 L99.0625,253.333334 L23.775,253.333334 C17.435,253.333334 11.8875,250.958333 7.1325,246.208334 C2.3775,241.458333 0,235.916667 0,229.583333 L0,23.75 C0,17.4166666 2.3775,11.875 7.1325,7.125 C11.8875,2.375 17.435,0 23.775,0 L166.425,0 L166.425,23.75 L23.775,23.75 L23.775,229.583333 L293.225,229.583333 L293.225,174.166666 L317,174.166666 L317,229.583333 C317,235.916667 314.6225,241.458333 309.8675,246.208334 C305.1125,250.958333 299.565,253.333334 293.225,253.333334 L217.9375,253.333334 L217.9375,285 L99.0625,285 Z M237.75,168.625 L164.0475,95 L180.69,78.375 L225.8625,123.5 L225.8625,0 L249.6375,0 L249.6375,123.5 L294.81,78.375 L311.4525,95 L237.75,168.625 Z" id="Shape"></path>
            </g>
        </g>
    </g>
</svg>