<?xml version="1.0" encoding="UTF-8"?>
<svg width="25px" height="25px" viewBox="0 0 25 25" version="1.1" xmlns="http://www.w3.org/2000/svg" xmlns:xlink="http://www.w3.org/1999/xlink">
    <title>githubMark</title>
    <g id="Page-1" stroke="none" stroke-width="1" fill="none" fill-rule="evenodd">
        <g id="githubMark" transform="translate(-0.000000, 0.000000)" fill="#161514">
            <path d="M12.5001035,0 C5.59739184,0 0,5.59635686 0,12.5001035 C0,18.0229766 3.58166011,22.708549 8.54833368,24.3614159 C9.17304906,24.4771269 9.40240116,24.0902505 9.40240116,23.7600911 C9.40240116,23.4620161 9.39080936,22.4773339 9.38542745,21.4328296 C5.90788657,22.1889878 5.17408404,19.9579797 5.17408404,19.9579797 C4.60546471,18.5131443 3.78617264,18.1289588 3.78617264,18.1289588 C2.65203892,17.353136 3.87166218,17.3690747 3.87166218,17.3690747 C5.12688884,17.4572552 5.78782861,18.6572138 5.78782861,18.6572138 C6.90271165,20.5682053 8.71206789,20.0157317 9.42537777,19.6963362 C9.53756986,18.8884289 9.86151935,18.3369903 10.2190023,18.0248396 C7.44255848,17.708756 4.52390809,16.6369282 4.52390809,11.8472366 C4.52390809,10.4825088 5.01221279,9.36741875 5.8118402,8.49203064 C5.68205341,8.17718899 5.25419168,6.9058166 5.93293314,5.18401987 C5.93293314,5.18401987 6.9826123,4.84806458 9.37135169,6.46532809 C10.3684537,6.1883668 11.4377976,6.04947216 12.5001035,6.04471124 C13.5624094,6.04947216 14.6325812,6.1883668 15.6315463,6.46532809 C18.0173877,4.84806458 19.0656179,5.18401987 19.0656179,5.18401987 C19.7460153,6.9058166 19.3179466,8.17718899 19.1881598,8.49203064 C19.9896502,9.36741875 20.4746429,10.4825088 20.4746429,11.8472366 C20.4746429,16.648313 17.5504036,17.705444 14.766922,18.0149037 C15.2152763,18.4028152 15.6147795,19.1635272 15.6147795,20.3297454 C15.6147795,22.002277 15.6002898,23.3483751 15.6002898,23.7600911 C15.6002898,24.0927344 15.825295,24.4825088 16.4589112,24.3597599 C21.4228938,22.70503 25,18.0211136 25,12.5001035 C25,5.59635686 19.4034361,0 12.5001035,0" id="Fill-5"></path>
            <path d="M4.73442351,17.9474229 C4.70689298,18.0095218 4.60919064,18.0281515 4.52018216,17.9855102 C4.4295177,17.9447319 4.37859656,17.8600704 4.40799006,17.7977644 C4.43489961,17.7338025 4.53280894,17.7160008 4.6232664,17.7588491 C4.71413786,17.7996274 4.76588698,17.885117 4.73442351,17.9474229" id="Fill-6"></path>
            <path d="M5.24073691,18.5121093 C5.18112192,18.5673774 5.0645829,18.5417098 4.98551025,18.4543573 C4.90374664,18.3672118 4.8884289,18.2506727 4.94887187,18.1945767 C5.01034982,18.1393086 5.1233699,18.1651832 5.20534051,18.2523287 C5.28710412,18.3405092 5.30304285,18.4562202 5.24073691,18.5121093" id="Fill-7"></path>
            <path d="M5.73359553,19.2320431 C5.65700683,19.2852412 5.53177396,19.235355 5.45435728,19.1241979 C5.37776858,19.0130408 5.37776858,18.879735 5.45601325,18.82633 C5.53363693,18.7729249 5.65700683,18.820948 5.7354585,18.9312772 C5.8118402,19.0442972 5.8118402,19.177603 5.73359553,19.2320431" id="Fill-8"></path>
            <path d="M6.40881805,19.9275512 C6.34030221,20.0031049 6.1943697,19.9828193 6.08755951,19.879735 C5.97826537,19.7789278 5.94783689,19.6358932 6.01655972,19.5603395 C6.08590354,19.4845788 6.23266404,19.5058994 6.34030221,19.6081557 C6.44876837,19.708756 6.48188781,19.8528255 6.40881805,19.9275512" id="Fill-9"></path>
            <path d="M7.34030221,20.3314014 C7.31008073,20.4293107 7.16953012,20.4738149 7.02794452,20.4322087 C6.88656593,20.3893604 6.7940385,20.2746843 6.82260402,20.17574 C6.85199752,20.0772097 6.99316912,20.0308425 7.13578969,20.0753467 C7.27696129,20.117988 7.36969572,20.2318361 7.34030221,20.3314014" id="Fill-10"></path>
            <path d="M8.36327882,20.4063341 C8.36679776,20.5094183 8.24673981,20.5949079 8.09811633,20.5967709 C7.94866487,20.6000828 7.82777893,20.5166632 7.82612296,20.4152349 C7.82612296,20.3111157 7.94348996,20.2264542 8.09294142,20.2239702 C8.24156489,20.2210722 8.36327882,20.3038708 8.36327882,20.4063341" id="Fill-11"></path>
            <path d="M9.31525564,20.2442558 C9.33305734,20.3448561 9.22976609,20.4481474 9.0821776,20.4756779 C8.93707307,20.5021735 8.80273235,20.4400745 8.78430967,20.3403022 C8.76630097,20.237218 8.87145519,20.1339267 9.01635272,20.1072242 C9.16414821,20.0815566 9.29641896,20.1419996 9.31525564,20.2442558" id="Fill-12"></path>
        </g>
    </g>
</svg>